<?xml version="1.0" standalone="no"?>
<!DOCTYPE svg PUBLIC "-//W3C//DTD SVG 20010904//EN"
 "http://www.w3.org/TR/2001/REC-SVG-20010904/DTD/svg10.dtd">
<svg version="1.0" xmlns="http://www.w3.org/2000/svg"
 width="1262.000000pt" height="1262.000000pt" viewBox="0 0 1262.000000 1262.000000"
 preserveAspectRatio="xMidYMid meet">

<g transform="translate(0.000000,1262.000000) scale(0.100000,-0.100000)"
fill="#ffffff" stroke="none">
<path d="M6055 12614 c-789 -46 -1398 -179 -2080 -454 -182 -73 -582 -272
-755 -375 -253 -152 -563 -367 -790 -549 -439 -353 -886 -823 -1205 -1266
-714 -991 -1095 -1989 -1201 -3150 -24 -253 -24 -757 0 -1010 84 -913 342
-1740 785 -2509 177 -306 402 -636 614 -900 594 -737 1361 -1356 2182 -1761
717 -353 1374 -532 2245 -612 205 -18 766 -15 985 6 813 78 1486 265 2170 601
341 168 592 321 935 568 538 389 1088 941 1466 1472 447 629 738 1202 939
1850 426 1372 350 2845 -215 4165 -177 415 -408 817 -717 1254 -383 540 -935
1096 -1473 1483 -352 252 -598 402 -935 568 -697 343 -1388 532 -2220 605
-123 11 -623 21 -730 14z m505 -298 c1016 -29 2087 -372 2940 -940 765 -509
1332 -1077 1847 -1851 468 -704 791 -1530 912 -2335 90 -598 90 -1152 0 -1750
-168 -1117 -695 -2202 -1520 -3126 -536 -601 -1260 -1141 -1969 -1469 -834
-386 -1729 -565 -2671 -533 -1078 36 -2120 367 -2991 949 -759 508 -1325 1076
-1835 1844 -363 547 -622 1124 -797 1775 -134 497 -203 1150 -178 1662 33 653
143 1197 357 1773 351 943 998 1869 1770 2536 982 847 2061 1318 3315 1445
165 16 516 32 600 27 25 -1 124 -5 220 -7z"/>
<path d="M5851 11717 l-393 -31 7 -96 c3 -52 7 -95 8 -96 1 0 74 5 162 12 88
7 160 12 161 11 1 -1 16 -186 34 -412 17 -225 32 -410 33 -411 4 -4 222 17
226 22 5 4 -45 716 -55 785 l-5 36 163 12 c90 7 164 13 164 14 1 1 -1 43 -5
92 l-6 90 -50 1 c-27 1 -227 -12 -444 -29z"/>
<path d="M7332 11619 c-8 -12 -153 -215 -324 -451 -170 -236 -308 -431 -306
-432 14 -11 231 -47 237 -40 3 6 30 46 60 89 29 44 57 84 61 88 6 7 456 -78
468 -88 1 -1 12 -53 25 -116 l23 -114 94 -22 c112 -25 140 -27 140 -10 0 26
-230 1061 -237 1068 -7 6 -201 49 -222 49 -3 0 -12 -10 -19 -21z m155 -635
c-5 -6 -296 51 -304 60 -2 1 50 81 114 175 l118 172 39 -200 c21 -111 36 -204
33 -207z"/>
<path d="M4792 11520 c-51 -15 -95 -30 -98 -32 -7 -8 -158 -1088 -152 -1094 3
-3 55 9 115 26 l110 32 12 116 c6 64 13 117 14 118 5 4 439 124 450 124 7 0
44 -40 82 -90 56 -71 74 -88 90 -84 90 22 207 61 207 67 0 5 -158 197 -351
428 -223 265 -358 419 -369 418 -9 0 -59 -14 -110 -29z m201 -380 c64 -82 120
-156 123 -163 3 -9 -36 -24 -143 -55 -81 -23 -149 -39 -151 -37 -3 2 5 89 17
192 12 103 21 194 21 201 0 6 3 12 8 12 4 -1 60 -68 125 -150z"/>
<path d="M8502 11211 c-23 -43 -42 -81 -42 -84 0 -3 63 -39 140 -79 77 -40
140 -76 140 -79 0 -4 -86 -167 -190 -364 -153 -288 -188 -361 -178 -371 14
-12 190 -106 193 -101 1 1 86 162 190 357 103 195 190 359 192 363 3 4 69 -26
148 -68 109 -57 145 -72 153 -62 5 6 26 44 46 84 l35 71 -388 206 c-213 113
-390 206 -393 206 -2 0 -23 -35 -46 -79z"/>
<path d="M3355 10875 c-176 -113 -320 -210 -319 -217 1 -13 506 -811 530 -837
10 -11 62 18 316 179 166 106 315 201 330 212 l27 18 -50 79 -51 79 -226 -145
c-125 -79 -230 -145 -235 -146 -5 -1 -38 42 -73 95 l-63 97 199 126 c182 116
198 129 189 147 -6 11 -27 46 -48 78 l-36 58 -195 -124 c-107 -68 -198 -124
-203 -124 -8 0 -117 165 -117 177 0 5 99 71 220 148 121 77 220 143 220 147 0
4 -22 41 -48 82 l-48 75 -319 -204z"/>
<path d="M9215 10373 c-148 -206 -282 -392 -297 -412 l-26 -36 95 -68 c53 -38
99 -65 103 -60 9 10 574 794 583 809 4 7 -31 38 -87 78 -52 36 -95 66 -97 66
-2 -1 -125 -170 -274 -377z"/>
<path d="M2652 10368 l-82 -83 217 -217 c197 -197 215 -218 189 -218 -16 0
-137 11 -270 25 -133 14 -298 31 -368 38 l-127 13 -68 -68 -68 -68 222 -223
c123 -122 283 -285 357 -362 l135 -140 82 82 83 82 -213 216 c-117 119 -211
218 -209 220 1 2 180 -15 397 -37 l393 -40 69 68 69 69 -363 363 -362 362 -83
-82z"/>
<path d="M9600 10072 c-201 -190 -365 -349 -365 -352 0 -4 32 -42 71 -85 l72
-78 213 202 c117 110 214 199 216 198 2 -2 -28 -120 -67 -263 -38 -142 -70
-266 -70 -275 0 -8 15 -30 34 -48 l33 -32 269 60 c148 34 275 61 282 61 7 0
-49 -60 -125 -132 -76 -73 -173 -167 -217 -208 l-78 -76 75 -80 75 -79 58 55
c210 195 674 643 674 650 0 4 -28 38 -62 74 l-63 66 -353 -81 c-195 -44 -356
-79 -359 -76 -2 3 39 164 93 357 l97 352 -69 69 -69 68 -365 -347z"/>
<path d="M5317 9870 c-19 -16 -44 -52 -56 -79 -24 -57 -51 -210 -51 -293 0
-62 -9 -70 -52 -47 -11 6 -65 26 -120 45 -87 30 -105 33 -133 24 -78 -26 -162
-209 -202 -438 -18 -105 -25 -494 -11 -627 l8 -70 -68 -35 c-108 -56 -260
-160 -367 -252 -257 -221 -450 -527 -549 -870 -33 -116 -50 -201 -81 -408 -65
-433 -164 -805 -291 -1093 -44 -100 -121 -234 -198 -344 -24 -35 -56 -100 -71
-145 -24 -72 -28 -99 -29 -198 0 -166 37 -293 127 -428 91 -135 233 -259 398
-346 73 -39 92 -54 114 -92 62 -105 197 -214 341 -274 148 -61 233 -75 479
-75 183 1 240 4 340 23 189 34 295 64 503 141 207 78 295 101 383 101 52 0
157 -15 166 -24 2 -2 -8 -50 -24 -107 -37 -142 -39 -314 -4 -402 32 -80 76
-135 149 -184 117 -79 320 -121 498 -103 124 13 344 63 669 153 132 36 162 41
255 41 118 0 130 -4 490 -143 174 -67 189 -71 265 -71 75 0 86 3 185 51 238
114 359 257 377 445 27 291 -201 869 -502 1270 -180 239 -476 519 -635 599
-187 95 -394 86 -578 -23 -127 -75 -421 -350 -602 -562 -192 -225 -365 -505
-455 -738 -19 -50 -33 -71 -42 -68 -46 18 -160 28 -262 23 -128 -6 -142 -9
-451 -116 -133 -46 -254 -80 -345 -98 -127 -24 -161 -27 -365 -27 -200 0 -234
2 -305 22 -181 50 -325 150 -391 272 -27 50 -37 59 -137 115 -194 108 -313
217 -387 356 -41 78 -60 159 -60 260 0 119 22 183 102 299 225 326 387 815
483 1460 35 230 51 307 96 444 47 143 125 302 210 428 81 119 282 321 409 410
207 146 482 264 731 313 175 34 174 32 149 280 -49 490 -51 913 -5 1043 8 22
331 -150 525 -280 568 -379 1097 -922 1678 -1719 l92 -127 -20 -47 c-69 -161
-104 -363 -103 -605 0 -166 2 -195 25 -281 46 -171 140 -322 240 -385 150 -95
345 -51 522 116 l52 49 104 -201 c92 -180 102 -203 90 -222 -38 -60 -101 -202
-128 -286 -44 -138 -55 -236 -49 -418 6 -175 25 -263 79 -364 82 -155 273
-251 431 -218 184 38 415 235 527 452 57 109 86 190 131 366 34 132 39 167 39
264 0 98 -4 125 -36 232 -72 243 -162 352 -327 392 -56 14 -79 15 -133 6 -144
-24 -317 -135 -425 -273 -60 -76 -64 -79 -73 -57 -5 13 -48 105 -96 204 l-88
182 43 62 c92 132 159 283 201 454 118 489 38 938 -198 1099 -135 92 -290 81
-439 -32 -90 -68 -193 -180 -259 -283 l-57 -87 -69 102 c-320 473 -759 996
-1110 1322 -334 310 -623 516 -964 687 -146 74 -182 88 -222 88 -38 0 -54 -6
-81 -30z m-227 -614 c56 -25 105 -48 108 -51 4 -3 10 -77 14 -163 5 -130 23
-380 31 -455 2 -16 -19 -24 -129 -52 -73 -19 -173 -50 -224 -70 -51 -19 -95
-33 -98 -31 -7 8 28 339 49 461 32 187 104 405 134 405 7 0 59 -20 115 -44z
m1883 -4268 c26 -29 64 -81 83 -115 90 -159 213 -203 574 -203 248 0 293 -18
472 -187 106 -101 148 -122 241 -123 37 0 67 -4 67 -8 0 -13 -47 -32 -96 -39
-70 -9 -125 12 -206 82 -40 34 -83 67 -95 74 -22 11 -23 10 -23 -29 0 -22 -11
-67 -24 -99 -29 -67 -41 -145 -32 -195 4 -19 23 -58 42 -87 l36 -52 -9 -168
c-10 -188 -15 -202 -75 -201 -66 0 -68 1 -68 28 0 19 7 28 30 35 36 13 38 39
14 157 -21 100 -33 122 -123 217 -42 44 -89 102 -105 129 l-28 49 -49 -6 c-44
-5 -49 -4 -49 14 0 19 -2 18 -48 -5 -49 -25 -124 -48 -222 -70 l-55 -12 -7
-90 c-31 -363 -38 -419 -55 -431 -32 -24 -143 -13 -143 13 0 14 7 21 59 62 24
18 25 24 23 113 -5 187 -32 277 -128 429 -32 51 -46 88 -72 195 -18 72 -55
159 -81 194 -26 34 -27 34 -101 32 -94 -2 -118 10 -151 76 -30 60 -34 53 62
115 43 28 58 44 62 67 4 20 20 40 48 61 37 27 50 30 112 30 l71 0 49 -52z"/>
<path d="M1880 9337 c-170 -58 -298 -185 -366 -363 -35 -91 -44 -240 -20 -333
85 -332 495 -491 782 -302 229 150 339 445 252 678 -59 161 -209 295 -370 333
-78 17 -206 12 -278 -13z m267 -237 c148 -68 225 -217 188 -362 -64 -255 -346
-336 -543 -155 -127 117 -136 310 -21 441 101 114 234 141 376 76z"/>
<path d="M10520 9019 c-239 -138 -436 -252 -438 -253 -2 -2 385 -676 391 -682
5 -5 157 89 157 96 0 5 -54 102 -121 217 -67 114 -127 220 -135 235 l-14 26
99 56 c55 31 101 56 104 56 3 0 54 -84 113 -187 59 -104 113 -194 119 -202 11
-11 26 -5 89 31 l75 44 -114 199 c-63 110 -115 203 -115 207 0 12 172 110 184
105 6 -3 64 -97 129 -210 65 -112 124 -213 131 -222 12 -17 18 -15 89 24 43
23 77 47 77 53 0 6 -70 133 -157 282 -209 362 -217 376 -223 376 -3 0 -201
-113 -440 -251z"/>
<path d="M6510 8215 c-133 -72 -210 -175 -269 -361 -61 -190 -74 -291 -68
-517 5 -205 22 -315 72 -462 81 -243 263 -489 416 -563 217 -107 404 -25 528
231 90 185 132 372 132 592 0 214 -37 387 -130 600 -111 259 -221 399 -372
474 -75 38 -87 41 -163 41 -73 0 -87 -4 -146 -35z"/>
<path d="M5413 6740 c-113 -57 -172 -144 -252 -372 -40 -112 -41 -120 -41
-243 0 -115 4 -141 36 -264 49 -182 87 -291 136 -381 102 -187 232 -315 403
-397 75 -36 86 -38 175 -38 87 0 101 3 160 32 133 65 220 189 262 373 28 124
31 385 5 498 -38 166 -95 299 -191 447 -85 130 -148 199 -238 258 -126 83
-195 110 -303 115 -85 3 -93 2 -152 -28z"/>
<path d="M890 6361 c-214 -70 -244 -348 -48 -447 44 -22 61 -26 124 -22 61 3
79 8 116 33 69 49 101 104 106 181 7 107 -42 195 -133 238 -42 20 -128 29
-165 17z"/>
<path d="M11610 6361 c-80 -25 -149 -92 -170 -167 -17 -59 -7 -136 25 -189 46
-79 112 -115 208 -115 140 0 237 102 237 246 -1 147 -161 267 -300 225z"/>
<path d="M2459 3677 c-64 -56 -236 -205 -383 -332 -146 -126 -266 -234 -266
-239 0 -4 32 -45 72 -90 40 -44 73 -83 75 -85 1 -2 49 38 107 89 58 50 109 90
114 88 5 -1 39 -38 76 -80 l67 -78 -44 -169 -44 -168 80 -92 c44 -51 83 -89
87 -84 4 4 24 73 45 153 20 80 41 162 46 182 l9 37 43 -16 c24 -9 74 -16 117
-17 61 0 86 5 133 27 80 37 168 128 196 202 39 105 21 241 -48 351 -30 48
-350 424 -360 423 -3 0 -58 -46 -122 -102z m216 -294 c85 -99 115 -152 115
-206 0 -143 -163 -226 -277 -141 -22 16 -74 68 -117 116 l-77 88 33 29 c146
127 234 201 240 201 4 0 41 -39 83 -87z"/>
<path d="M9830 3443 c-127 -24 -294 -149 -374 -281 -107 -177 -108 -391 -2
-556 189 -294 566 -339 826 -99 120 111 181 228 196 378 l7 65 -105 0 -105 0
-7 -61 c-11 -108 -60 -192 -149 -253 -137 -93 -285 -78 -410 42 -64 62 -98
130 -105 208 -14 185 135 350 323 357 l43 2 6 59 c3 32 6 79 6 102 l0 44 -62
-1 c-35 -1 -74 -4 -88 -6z"/>
<path d="M10595 3295 c-97 -50 -100 -201 -5 -250 100 -52 210 15 210 128 0 42
-5 53 -38 89 -33 35 -45 41 -88 45 -32 2 -60 -2 -79 -12z"/>
<path d="M3034 2793 c-109 -142 -248 -323 -310 -403 -61 -80 -110 -148 -108
-152 3 -4 138 -109 302 -234 163 -125 303 -232 311 -237 14 -12 35 9 100 99
l30 40 -220 169 c-123 94 -218 173 -215 180 8 22 129 175 138 175 4 0 90 -63
191 -140 100 -77 184 -140 187 -140 3 1 29 33 59 72 46 60 52 72 39 82 -8 6
-94 72 -190 145 l-176 135 61 80 c33 45 64 85 68 90 4 5 102 -64 218 -153 116
-88 215 -161 219 -161 8 0 112 132 112 143 0 7 -585 456 -604 463 -9 4 -82
-83 -212 -253z"/>
<path d="M9012 2772 c-63 -39 -90 -62 -87 -71 3 -8 75 -126 160 -262 85 -135
155 -249 155 -252 0 -4 -171 52 -380 123 l-380 129 -80 -50 c-44 -28 -80 -55
-80 -59 0 -7 357 -584 506 -817 l33 -53 98 61 c54 34 99 62 100 63 1 0 -72
118 -162 261 -90 143 -162 262 -159 264 2 2 173 -54 381 -124 l378 -128 80 50
c44 28 79 55 78 61 -4 17 -535 862 -542 862 -3 0 -48 -26 -99 -58z"/>
<path d="M3948 2436 c-97 -26 -174 -102 -203 -199 -20 -66 -19 -97 4 -156 27
-71 58 -107 196 -227 163 -141 191 -192 141 -251 -56 -65 -212 -19 -342 101
-36 32 -80 81 -98 107 l-32 48 -72 -60 c-40 -33 -72 -65 -72 -72 0 -6 20 -38
45 -69 135 -172 395 -302 566 -284 144 15 252 116 266 251 12 112 -34 183
-233 356 -149 129 -169 171 -115 231 27 30 35 33 83 32 96 -2 223 -78 307
-184 l40 -50 70 61 c39 33 71 64 71 68 0 20 -80 107 -144 155 -88 68 -199 121
-291 141 -84 18 -124 18 -187 1z"/>
<path d="M8051 2244 c-58 -24 -106 -46 -108 -48 -4 -4 381 -934 391 -943 3 -3
53 14 111 37 91 38 104 46 99 63 -7 21 -384 931 -387 933 -1 1 -49 -18 -106
-42z"/>
<path d="M4883 2056 c-231 -56 -393 -272 -393 -523 0 -144 53 -265 159 -366
80 -75 163 -121 267 -147 138 -36 280 -23 395 36 38 19 49 29 45 41 -12 31
-99 164 -105 160 -82 -44 -109 -51 -191 -51 -66 1 -96 6 -135 23 -78 35 -130
84 -166 156 -30 61 -31 69 -27 152 7 133 60 229 162 288 138 80 342 32 437
-104 18 -25 34 -48 35 -49 1 -2 43 17 93 43 l91 47 -22 42 c-32 57 -122 146
-188 183 -87 50 -217 83 -319 82 -47 0 -109 -6 -138 -13z"/>
<path d="M7050 1957 c-195 -33 -356 -61 -357 -62 -3 -2 167 -1009 171 -1013 3
-3 779 127 782 131 2 2 -27 181 -30 184 -1 1 -121 -18 -266 -42 -146 -25 -270
-45 -276 -45 -11 0 -53 226 -43 233 2 2 105 20 228 41 124 20 227 39 230 41 9
9 -22 175 -33 175 -6 0 -111 -16 -234 -36 -122 -21 -224 -35 -227 -33 -7 7
-39 209 -34 214 3 2 119 23 259 46 140 23 258 45 262 48 4 4 1 45 -7 91 -8 47
-15 86 -15 88 0 7 -89 -6 -410 -61z"/>
<path d="M5630 1888 c-1 -18 -7 -159 -14 -314 -14 -301 -10 -376 24 -467 28
-74 113 -167 183 -202 80 -39 187 -58 292 -52 156 9 265 63 338 167 74 106 83
170 103 676 l7 181 -114 6 c-63 3 -115 4 -116 3 -1 -1 -9 -143 -17 -316 -16
-327 -24 -380 -66 -440 -43 -61 -140 -90 -235 -70 -93 19 -153 88 -169 195 -4
22 0 177 8 345 8 168 14 305 13 306 -1 1 -55 4 -119 8 l-118 7 0 -33z"/>
</g>
</svg>
